<?xml version='1.0' encoding='utf-8'?>
<svg height="956.18mm" viewBox="0.0 0.0 298.80 956.18" width="298.80mm" xmlns="http://www.w3.org/2000/svg" xmlns:cc="http://creativecommons.org/ns#" xmlns:dc="http://purl.org/dc/elements/1.1/" xmlns:inkscape="http://www.inkscape.org/namespaces/inkscape" xmlns:rdf="http://www.w3.org/1999/02/22-rdf-syntax-ns#" xmlns:svg="http://www.w3.org/2000/svg" xmlns:xlink="http://www.w3.org/1999/xlink">
<!--
BirdHouse - Simple Bird House

Created with Boxes.py (https://boxes.hackerspace-bamberg.de/)
Command line (remove spaces between dashes): boxes BirdHouse - -x=140 - -y=120 - -h=160 - -front_opening_shape=circle - -front_opening_width=52 - -back_opening_shape=none - -left_opening_shape=none - -right_opening_shape=none - -perch_mode=ledge - -perch_size_mode=manual - -perch_ledge_width=30 - -perch_ledge_depth=30 - -sheet_width=300
-->
<title>BirdHouse</title>
<metadata>
<rdf:RDF><cc:Work>
<dc:title>Misc - BirdHouse</dc:title>
<dc:source>boxes BirdHouse --x=140 --y=120 --h=160 --front_opening_shape=circle --front_opening_width=52 --back_opening_shape=none --left_opening_shape=none --right_opening_shape=none --perch_mode=ledge --perch_clearance_mode=auto --perch_size_mode=manual --perch_ledge_width=30 --perch_ledge_depth=30 --sheet_width=300</dc:source>
<dc:description>Simple Bird House

Created with Boxes.py (https://boxes.hackerspace-bamberg.de/)
Command line: boxes BirdHouse --x=140 --y=120 --h=160 --front_opening_shape=circle --front_opening_width=52 --back_opening_shape=none --left_opening_shape=none --right_opening_shape=none --perch_mode=ledge --perch_clearance_mode=auto --perch_size_mode=manual --perch_ledge_width=30 --perch_ledge_depth=30 --sheet_width=300
Command line short: boxes BirdHouse --x=140 --y=120 --h=160 --front_opening_shape=circle --front_opening_width=52 --back_opening_shape=none --left_opening_shape=none --right_opening_shape=none --perch_mode=ledge --perch_size_mode=manual --perch_ledge_width=30 --perch_ledge_depth=30 --sheet_width=300
</dc:description>
</cc:Work></rdf:RDF></metadata>
<g id="p-0" style="fill:none;stroke-linecap:round;stroke-linejoin:round;">
  <path d="M 10.200 946.184 H 110.200 V 936.184 H 10.200 V 946.184 Z" stroke="rgb(0,0,0)" stroke-width="0.20" />
  <text dominant-baseline="hanging" font-size="6px" style="font-family: sans-serif ; font-weight: normal; font-style: normal; fill: rgb(255,0,0)" text-anchor="middle" transform="matrix( 1.000 0.000 0.000 1.000 60.200 938.184 )">100.0mm, burn:0.10mm</text>
</g>
<g id="p-1" style="fill:none;stroke-linecap:round;stroke-linejoin:round;">
  <path d="M 166.100 835.584 C 171.065 835.584 175.926 837.011 180.103 839.695 C 184.280 842.380 187.597 846.208 189.659 850.725 C 191.722 855.241 192.443 860.255 191.736 865.170 C 191.030 870.084 188.925 874.692 185.674 878.445 C 182.422 882.197 178.161 884.936 173.397 886.335 C 168.633 887.734 163.567 887.734 158.803 886.335 C 154.039 884.936 149.778 882.197 146.526 878.445 C 143.275 874.692 141.170 870.084 140.464 865.170 C 139.757 860.255 140.478 855.241 142.541 850.725 C 144.603 846.208 147.920 842.380 152.097 839.695 C 156.274 837.011 161.135 835.584 166.100 835.584 Z" stroke="rgb(0,0,255)" stroke-width="0.20" />
  <path d="M 205.000 861.484 V 866.384 C 205.000 866.484 205.100 866.384 205.000 866.384 H 202.200 C 202.100 866.384 202.200 866.484 202.200 866.384 V 856.584 C 202.200 856.484 202.100 856.584 202.200 856.584 H 205.000 C 205.100 856.584 205.000 856.484 205.000 856.584 V 861.484 Z" stroke="rgb(0,0,255)" stroke-width="0.20" />
  <path d="M 249.000 861.484 V 876.384 C 249.000 876.484 249.100 876.384 249.000 876.384 H 246.200 C 246.100 876.384 246.200 876.484 246.200 876.384 V 846.584 C 246.200 846.484 246.100 846.584 246.200 846.584 H 249.000 C 249.100 846.584 249.000 846.484 249.000 846.584 V 861.484 Z" stroke="rgb(0,0,255)" stroke-width="0.20" />
  <path d="M 288.798 931.484 V 791.484 C 288.798 791.429 288.753 791.384 288.698 791.384 H 246.100 H 211.200 C 211.100 791.384 211.200 791.484 211.200 791.384 V 788.484 C 211.200 788.429 211.155 788.384 211.100 788.384 H 181.100 C 181.045 788.384 181.000 788.429 181.000 788.484 V 791.384 C 181.000 791.484 181.100 791.384 181.000 791.384 H 151.200 C 151.100 791.384 151.200 791.484 151.200 791.384 V 788.484 C 151.200 788.429 151.155 788.384 151.100 788.384 H 121.100 C 121.045 788.384 121.000 788.429 121.000 788.484 V 791.384 C 121.000 791.484 121.100 791.384 121.000 791.384 H 86.100 H 83.100 C 83.073 791.384 83.048 791.394 83.029 791.413 L 58.707 815.736 C 58.636 815.807 58.777 815.807 58.707 815.736 L 56.656 813.685 C 56.617 813.646 56.554 813.646 56.515 813.685 L 35.301 834.898 C 35.262 834.937 35.262 835.001 35.301 835.040 L 37.352 837.090 C 37.423 837.161 37.423 837.020 37.352 837.090 L 13.029 861.413 C 12.990 861.452 12.990 861.515 13.029 861.555 L 37.352 885.877 C 37.423 885.948 37.423 885.807 37.352 885.877 L 35.301 887.928 C 35.262 887.967 35.262 888.030 35.301 888.069 L 56.515 909.282 C 56.554 909.322 56.617 909.322 56.656 909.282 L 58.707 907.232 C 58.777 907.161 58.636 907.161 58.707 907.232 L 83.029 931.555 C 83.048 931.573 83.073 931.584 83.100 931.584 H 86.100 H 121.000 C 121.100 931.584 121.000 931.484 121.000 931.584 V 934.484 C 121.000 934.539 121.045 934.584 121.100 934.584 H 151.100 C 151.155 934.584 151.200 934.539 151.200 934.484 V 931.584 C 151.200 931.484 151.100 931.584 151.200 931.584 H 181.000 C 181.100 931.584 181.000 931.484 181.000 931.584 V 934.484 C 181.000 934.539 181.045 934.584 181.100 934.584 H 211.100 C 211.155 934.584 211.200 934.539 211.200 934.484 V 931.584 C 211.200 931.484 211.100 931.584 211.200 931.584 H 246.100 H 288.698 C 288.753 931.584 288.798 931.539 288.798 931.484 Z" stroke="rgb(0,0,0)" stroke-width="0.20" />
</g>
<g id="p-2" style="fill:none;stroke-linecap:round;stroke-linejoin:round;">
  <path d="M 249.000 713.784 V 728.684 C 249.000 728.784 249.100 728.684 249.000 728.684 H 246.200 C 246.100 728.684 246.200 728.784 246.200 728.684 V 698.884 C 246.200 698.784 246.100 698.884 246.200 698.884 H 249.000 C 249.100 698.884 249.000 698.784 249.000 698.884 V 713.784 Z" stroke="rgb(0,0,255)" stroke-width="0.20" />
  <path d="M 288.798 783.784 V 643.784 C 288.798 643.729 288.753 643.684 288.698 643.684 H 246.100 H 211.200 C 211.100 643.684 211.200 643.784 211.200 643.684 V 640.784 C 211.200 640.729 211.155 640.684 211.100 640.684 H 181.100 C 181.045 640.684 181.000 640.729 181.000 640.784 V 643.684 C 181.000 643.784 181.100 643.684 181.000 643.684 H 151.200 C 151.100 643.684 151.200 643.784 151.200 643.684 V 640.784 C 151.200 640.729 151.155 640.684 151.100 640.684 H 121.100 C 121.045 640.684 121.000 640.729 121.000 640.784 V 643.684 C 121.000 643.784 121.100 643.684 121.000 643.684 H 86.100 H 83.100 C 83.073 643.684 83.048 643.694 83.029 643.713 L 58.707 668.036 C 58.636 668.107 58.777 668.107 58.707 668.036 L 56.656 665.985 C 56.617 665.946 56.554 665.946 56.515 665.985 L 35.301 687.198 C 35.262 687.237 35.262 687.301 35.301 687.340 L 37.352 689.390 C 37.423 689.461 37.423 689.320 37.352 689.390 L 13.029 713.713 C 12.990 713.752 12.990 713.815 13.029 713.855 L 37.352 738.177 C 37.423 738.248 37.423 738.107 37.352 738.177 L 35.301 740.228 C 35.262 740.267 35.262 740.330 35.301 740.369 L 56.515 761.582 C 56.554 761.622 56.617 761.622 56.656 761.582 L 58.707 759.532 C 58.777 759.461 58.636 759.461 58.707 759.532 L 83.029 783.855 C 83.048 783.873 83.073 783.884 83.100 783.884 H 86.100 H 121.000 C 121.100 783.884 121.000 783.784 121.000 783.884 V 786.784 C 121.000 786.839 121.045 786.884 121.100 786.884 H 151.100 C 151.155 786.884 151.200 786.839 151.200 786.784 V 783.884 C 151.200 783.784 151.100 783.884 151.200 783.884 H 181.000 C 181.100 783.884 181.000 783.784 181.000 783.884 V 786.784 C 181.000 786.839 181.045 786.884 181.100 786.884 H 211.100 C 211.155 786.884 211.200 786.839 211.200 786.784 V 783.884 C 211.200 783.784 211.100 783.884 211.200 783.884 H 246.100 H 288.698 C 288.753 783.884 288.798 783.839 288.798 783.784 Z" stroke="rgb(0,0,0)" stroke-width="0.20" />
</g>
<g id="p-3" style="fill:none;stroke-linecap:round;stroke-linejoin:round;">
  <path d="M 173.000 277.498 V 292.398 C 173.000 292.498 173.100 292.398 173.000 292.398 H 170.200 C 170.100 292.398 170.200 292.498 170.200 292.398 V 262.598 C 170.200 262.498 170.100 262.598 170.200 262.598 H 173.000 C 173.100 262.598 173.000 262.498 173.000 262.598 V 277.498 Z" stroke="rgb(0,0,255)" stroke-width="0.20" />
  <path d="M 212.798 337.498 V 217.498 V 214.498 C 212.798 214.443 212.753 214.398 212.698 214.398 H 170.100 H 135.100 C 135.045 214.398 135.000 214.443 135.000 214.498 V 217.398 C 135.000 217.498 135.100 217.398 135.000 217.398 H 105.200 C 105.100 217.398 105.200 217.498 105.200 217.398 V 214.498 C 105.200 214.443 105.155 214.398 105.100 214.398 H 75.100 C 75.045 214.398 75.000 214.443 75.000 214.498 V 217.398 C 75.000 217.498 75.100 217.398 75.000 217.398 H 45.200 C 45.100 217.398 45.200 217.498 45.200 217.398 V 214.498 C 45.200 214.443 45.155 214.398 45.100 214.398 H 10.100 C 10.045 214.398 10.000 214.443 10.000 214.498 V 217.498 V 337.498 V 340.498 C 10.000 340.553 10.045 340.598 10.100 340.598 H 45.100 C 45.155 340.598 45.200 340.553 45.200 340.498 V 337.598 C 45.200 337.498 45.100 337.598 45.200 337.598 H 75.000 C 75.100 337.598 75.000 337.498 75.000 337.598 V 340.498 C 75.000 340.553 75.045 340.598 75.100 340.598 H 105.100 C 105.155 340.598 105.200 340.553 105.200 340.498 V 337.598 C 105.200 337.498 105.100 337.598 105.200 337.598 H 135.000 C 135.100 337.598 135.000 337.498 135.000 337.598 V 340.498 C 135.000 340.553 135.045 340.598 135.100 340.598 H 170.100 H 212.698 C 212.753 340.598 212.798 340.553 212.798 340.498 V 337.498 Z" stroke="rgb(0,0,0)" stroke-width="0.20" />
</g>
<g id="p-4" style="fill:none;stroke-linecap:round;stroke-linejoin:round;">
  <path d="M 73.200 173.000 H 58.300 C 58.200 173.000 58.300 173.100 58.300 173.000 V 170.200 C 58.300 170.100 58.200 170.200 58.300 170.200 H 88.100 C 88.200 170.200 88.100 170.100 88.100 170.200 V 173.000 C 88.100 173.100 88.200 173.000 88.100 173.000 H 73.200 Z" stroke="rgb(0,0,255)" stroke-width="0.20" />
  <path d="M 13.200 212.798 H 133.200 H 136.200 C 136.255 212.798 136.300 212.753 136.300 212.698 V 170.100 V 135.100 C 136.300 135.045 136.255 135.000 136.200 135.000 H 133.300 C 133.200 135.000 133.300 135.100 133.300 135.000 V 105.200 C 133.300 105.100 133.200 105.200 133.300 105.200 H 136.200 C 136.255 105.200 136.300 105.155 136.300 105.100 V 75.100 C 136.300 75.045 136.255 75.000 136.200 75.000 H 133.300 C 133.200 75.000 133.300 75.100 133.300 75.000 V 45.200 C 133.300 45.100 133.200 45.200 133.300 45.200 H 136.200 C 136.255 45.200 136.300 45.155 136.300 45.100 V 10.100 C 136.300 10.045 136.255 10.000 136.200 10.000 H 133.200 H 13.200 H 10.200 C 10.145 10.000 10.100 10.045 10.100 10.100 V 45.100 C 10.100 45.155 10.145 45.200 10.200 45.200 H 13.100 C 13.200 45.200 13.100 45.100 13.100 45.200 V 75.000 C 13.100 75.100 13.200 75.000 13.100 75.000 H 10.200 C 10.145 75.000 10.100 75.045 10.100 75.100 V 105.100 C 10.100 105.155 10.145 105.200 10.200 105.200 H 13.100 C 13.200 105.200 13.100 105.100 13.100 105.200 V 135.000 C 13.100 135.100 13.200 135.000 13.100 135.000 H 10.200 C 10.145 135.000 10.100 135.045 10.100 135.100 V 170.100 V 212.698 C 10.100 212.753 10.145 212.798 10.200 212.798 H 13.200 Z" stroke="rgb(0,0,0)" stroke-width="0.20" />
</g>
<g id="p-5" style="fill:none;stroke-linecap:round;stroke-linejoin:round;">
  <path d="M 140.900 209.798 H 195.800 C 195.900 209.798 195.800 209.698 195.800 209.798 V 212.698 C 195.800 212.753 195.845 212.798 195.900 212.798 H 225.900 C 225.955 212.798 226.000 212.753 226.000 212.698 V 209.798 C 226.000 209.698 225.900 209.798 226.000 209.798 H 280.900 C 280.955 209.798 281.000 209.753 281.000 209.698 V 164.798 C 281.000 164.698 280.900 164.798 281.000 164.798 H 283.900 C 283.955 164.798 284.000 164.753 284.000 164.698 V 134.698 C 284.000 134.643 283.955 134.598 283.900 134.598 H 281.000 C 280.900 134.598 281.000 134.698 281.000 134.598 V 89.698 C 281.000 89.643 280.955 89.598 280.900 89.598 H 226.000 C 225.900 89.598 226.000 89.698 226.000 89.598 V 86.698 C 226.000 86.643 225.955 86.598 225.900 86.598 H 195.900 C 195.845 86.598 195.800 86.643 195.800 86.698 V 89.598 C 195.800 89.698 195.900 89.598 195.800 89.598 H 140.900 C 140.845 89.598 140.800 89.643 140.800 89.698 V 134.598 C 140.800 134.698 140.900 134.598 140.800 134.598 H 137.900 C 137.845 134.598 137.800 134.643 137.800 134.698 V 164.698 C 137.800 164.753 137.845 164.798 137.900 164.798 H 140.800 C 140.900 164.798 140.800 164.698 140.800 164.798 V 209.698 C 140.800 209.753 140.845 209.798 140.900 209.798 Z" stroke="rgb(0,0,0)" stroke-width="0.20" />
</g>
<g id="p-6" style="fill:none;stroke-linecap:round;stroke-linejoin:round;">
  <path d="M 49.798 639.084 H 175.798 C 182.766 639.084 189.612 637.250 195.647 633.765 C 201.682 630.281 206.693 625.270 210.177 619.235 C 213.662 613.200 215.496 606.354 215.496 599.386 V 494.391 C 215.496 494.336 215.451 494.291 215.396 494.291 H 157.898 C 157.798 494.291 157.898 494.391 157.898 494.291 V 491.391 C 157.898 491.336 157.853 491.291 157.798 491.291 H 127.798 C 127.743 491.291 127.698 491.336 127.698 491.391 V 494.291 C 127.698 494.391 127.798 494.291 127.698 494.291 H 97.898 C 97.798 494.291 97.898 494.391 97.898 494.291 V 491.391 C 97.898 491.336 97.853 491.291 97.798 491.291 H 67.798 C 67.743 491.291 67.698 491.336 67.698 491.391 V 494.291 C 67.698 494.391 67.798 494.291 67.698 494.291 H 10.200 C 10.145 494.291 10.100 494.336 10.100 494.391 V 599.386 C 10.100 606.354 11.934 613.200 15.419 619.235 C 18.903 625.270 23.914 630.281 29.949 633.765 C 35.984 637.250 42.830 639.084 49.798 639.084 Z" stroke="rgb(0,0,0)" stroke-width="0.20" />
  <path d="M 172.898 543.788 V 528.888 C 172.898 528.788 172.798 528.888 172.898 528.888 H 175.698 C 175.798 528.888 175.698 528.788 175.698 528.888 V 558.688 C 175.698 558.788 175.798 558.688 175.698 558.688 H 172.898 C 172.798 558.688 172.898 558.788 172.898 558.688 V 543.788 Z" stroke="rgb(0,0,255)" stroke-width="0.20" />
  <path d="M 49.898 543.788 V 528.888 C 49.898 528.788 49.798 528.888 49.898 528.888 H 52.698 C 52.798 528.888 52.698 528.788 52.698 528.888 V 558.688 C 52.698 558.788 52.798 558.688 52.698 558.688 H 49.898 C 49.798 558.688 49.898 558.788 49.898 558.688 V 543.788 Z" stroke="rgb(0,0,255)" stroke-width="0.20" />
</g>
<g id="p-7" style="fill:none;stroke-linecap:round;stroke-linejoin:round;">
  <path d="M 49.798 489.791 H 175.798 C 182.766 489.791 189.612 487.957 195.647 484.472 C 201.682 480.988 206.693 475.977 210.177 469.942 C 213.662 463.907 215.496 457.061 215.496 450.093 V 345.098 V 342.098 C 215.496 342.043 215.451 341.998 215.396 341.998 H 157.798 C 157.743 341.998 157.698 342.043 157.698 342.098 V 344.998 C 157.698 345.098 157.798 344.998 157.698 344.998 H 127.898 C 127.798 344.998 127.898 345.098 127.898 344.998 V 342.098 C 127.898 342.043 127.853 341.998 127.798 341.998 H 97.798 C 97.743 341.998 97.698 342.043 97.698 342.098 V 344.998 C 97.698 345.098 97.798 344.998 97.698 344.998 H 67.898 C 67.798 344.998 67.898 345.098 67.898 344.998 V 342.098 C 67.898 342.043 67.853 341.998 67.798 341.998 H 10.200 C 10.145 341.998 10.100 342.043 10.100 342.098 V 345.098 V 450.093 C 10.100 457.061 11.934 463.907 15.419 469.942 C 18.903 475.977 23.914 480.988 29.949 484.472 C 35.984 487.957 42.830 489.791 49.798 489.791 Z" stroke="rgb(0,0,0)" stroke-width="0.20" />
  <path d="M 172.898 394.495 V 379.595 C 172.898 379.495 172.798 379.595 172.898 379.595 H 175.698 C 175.798 379.595 175.698 379.495 175.698 379.595 V 409.395 C 175.698 409.495 175.798 409.395 175.698 409.395 H 172.898 C 172.798 409.395 172.898 409.495 172.898 409.395 V 394.495 Z" stroke="rgb(0,0,255)" stroke-width="0.20" />
  <path d="M 49.898 394.495 V 379.595 C 49.898 379.495 49.798 379.595 49.898 379.595 H 52.698 C 52.798 379.595 52.698 379.495 52.698 379.595 V 409.395 C 52.698 409.495 52.798 409.395 52.698 409.395 H 49.898 C 49.798 409.395 49.898 409.495 49.898 409.395 V 394.495 Z" stroke="rgb(0,0,255)" stroke-width="0.20" />
</g>
<g id="p-8" style="fill:none;stroke-linecap:round;stroke-linejoin:round;">
  <path d="M 250.096 639.084 V 609.084 C 250.096 609.029 250.051 608.984 249.996 608.984 H 219.996 C 219.941 608.984 219.896 609.029 219.896 609.084 V 616.084 V 618.984 C 219.896 619.084 219.996 618.984 219.896 618.984 H 216.996 C 216.941 618.984 216.896 619.029 216.896 619.084 V 629.084 C 216.896 629.139 216.941 629.184 216.996 629.184 H 219.896 C 219.996 629.184 219.896 629.084 219.896 629.184 V 632.084 V 639.084 C 219.896 639.139 219.941 639.184 219.996 639.184 H 249.996 C 250.051 639.184 250.096 639.139 250.096 639.084 Z" stroke="rgb(0,0,0)" stroke-width="0.20" />
  <text dominant-baseline="hanging" font-size="4px" style="font-family: sans-serif ; font-weight: normal; font-style: normal; fill: rgb(255,0,0)" text-anchor="middle" transform="matrix( 1.000 0.000 0.000 1.000 233.596 622.084 )">front perch</text>
</g>
</svg>