<?xml version='1.0' encoding='utf-8'?>
<svg height="1113.69mm" viewBox="0.0 0.0 586.10 1113.69" width="586.10mm" xmlns="http://www.w3.org/2000/svg" xmlns:cc="http://creativecommons.org/ns#" xmlns:dc="http://purl.org/dc/elements/1.1/" xmlns:inkscape="http://www.inkscape.org/namespaces/inkscape" xmlns:rdf="http://www.w3.org/1999/02/22-rdf-syntax-ns#" xmlns:svg="http://www.w3.org/2000/svg" xmlns:xlink="http://www.w3.org/1999/xlink">
<!--
BirdHouse - Simple Bird House

Created with Boxes.py (https://boxes.hackerspace-bamberg.de/)
Command line (remove spaces between dashes): boxes BirdHouse
-->
<title>BirdHouse</title>
<metadata>
<rdf:RDF><cc:Work>
<dc:title>Misc - BirdHouse</dc:title>
<dc:source>boxes BirdHouse</dc:source>
<dc:description>Simple Bird House

Created with Boxes.py (https://boxes.hackerspace-bamberg.de/)
Command line: boxes BirdHouse
Command line short: boxes BirdHouse
</dc:description>
</cc:Work></rdf:RDF></metadata>
<g id="p-0" style="fill:none;stroke-linecap:round;stroke-linejoin:round;">
  <path d="M 10.100 1103.690 H 110.100 V 1093.690 H 10.100 V 1103.690 Z" stroke="rgb(0,0,0)" stroke-width="0.20" />
  <text dominant-baseline="hanging" font-size="6px" style="font-family: sans-serif ; font-weight: normal; font-style: normal; fill: rgb(255,0,0)" text-anchor="middle" transform="matrix( 1.000 0.000 0.000 1.000 60.100 1095.690 )">100.0mm, burn:0.10mm</text>
</g>
<g id="p-1" style="fill:none;stroke-linecap:round;stroke-linejoin:round;">
  <path d="M 113.100 1007.221 H 41.100 C 40.591 1007.221 40.091 1007.087 39.650 1006.833 C 39.209 1006.578 38.843 1006.212 38.589 1005.771 C 38.334 1005.331 38.200 1004.830 38.200 1004.321 V 860.321 C 38.200 859.812 38.334 859.312 38.589 858.871 C 38.843 858.431 39.209 858.064 39.650 857.810 C 40.091 857.555 40.591 857.421 41.100 857.421 H 185.100 C 185.609 857.421 186.109 857.555 186.550 857.810 C 186.991 858.064 187.357 858.431 187.611 858.871 C 187.866 859.312 188.000 859.812 188.000 860.321 V 1004.321 C 188.000 1004.830 187.866 1005.331 187.611 1005.771 C 187.357 1006.212 186.991 1006.578 186.550 1006.833 C 186.109 1007.087 185.609 1007.221 185.100 1007.221 H 113.100 Z" stroke="rgb(0,0,255)" stroke-width="0.20" />
  <path d="M 83.100 1035.221 H 68.200 C 68.100 1035.221 68.200 1035.321 68.200 1035.221 V 1032.421 C 68.200 1032.321 68.100 1032.421 68.200 1032.421 H 98.000 C 98.100 1032.421 98.000 1032.321 98.000 1032.421 V 1035.221 C 98.000 1035.321 98.100 1035.221 98.000 1035.221 H 83.100 Z" stroke="rgb(0,0,255)" stroke-width="0.20" />
  <path d="M 143.100 1035.221 H 128.200 C 128.100 1035.221 128.200 1035.321 128.200 1035.221 V 1032.421 C 128.200 1032.321 128.100 1032.421 128.200 1032.421 H 158.000 C 158.100 1032.421 158.000 1032.321 158.000 1032.421 V 1035.221 C 158.000 1035.321 158.100 1035.221 158.000 1035.221 H 143.100 Z" stroke="rgb(0,0,255)" stroke-width="0.20" />
  <path d="M 13.100 1091.990 H 213.100 C 213.155 1091.990 213.200 1091.945 213.200 1091.890 V 1032.321 V 977.421 C 213.200 977.321 213.100 977.421 213.200 977.421 H 216.100 C 216.155 977.421 216.200 977.377 216.200 977.321 V 947.321 C 216.200 947.266 216.155 947.221 216.100 947.221 H 213.200 C 213.100 947.221 213.200 947.321 213.200 947.221 V 917.421 C 213.200 917.321 213.100 917.421 213.200 917.421 H 216.100 C 216.155 917.421 216.200 917.377 216.200 917.321 V 887.321 C 216.200 887.266 216.155 887.221 216.100 887.221 H 213.200 C 213.100 887.221 213.200 887.321 213.200 887.221 V 832.321 V 829.321 C 213.200 829.295 213.189 829.269 213.171 829.251 L 173.848 789.928 C 173.777 789.857 173.777 789.999 173.848 789.928 L 175.899 787.877 C 175.938 787.838 175.938 787.775 175.899 787.736 L 154.685 766.523 C 154.646 766.484 154.583 766.484 154.544 766.523 L 152.493 768.573 C 152.423 768.644 152.564 768.644 152.493 768.573 L 113.171 729.251 C 113.132 729.212 113.068 729.212 113.029 729.251 L 73.707 768.573 C 73.636 768.644 73.777 768.644 73.707 768.573 L 71.656 766.523 C 71.617 766.484 71.554 766.484 71.515 766.523 L 50.301 787.736 C 50.262 787.775 50.262 787.838 50.301 787.877 L 52.352 789.928 C 52.423 789.999 52.423 789.857 52.352 789.928 L 13.029 829.251 C 13.011 829.269 13.000 829.295 13.000 829.321 V 832.321 V 887.221 C 13.000 887.321 13.100 887.221 13.000 887.221 H 10.100 C 10.045 887.221 10.000 887.266 10.000 887.321 V 917.321 C 10.000 917.377 10.045 917.421 10.100 917.421 H 13.000 C 13.100 917.421 13.000 917.321 13.000 917.421 V 947.221 C 13.000 947.321 13.100 947.221 13.000 947.221 H 10.100 C 10.045 947.221 10.000 947.266 10.000 947.321 V 977.321 C 10.000 977.377 10.045 977.421 10.100 977.421 H 13.000 C 13.100 977.421 13.000 977.321 13.000 977.421 V 1032.321 V 1091.890 C 13.000 1091.945 13.045 1091.990 13.100 1091.990 Z" stroke="rgb(0,0,0)" stroke-width="0.20" />
</g>
<g id="p-2" style="fill:none;stroke-linecap:round;stroke-linejoin:round;">
  <path d="M 320.800 1007.221 H 248.800 C 248.291 1007.221 247.791 1007.087 247.350 1006.833 C 246.909 1006.578 246.543 1006.212 246.289 1005.771 C 246.034 1005.331 245.900 1004.830 245.900 1004.321 V 860.321 C 245.900 859.812 246.034 859.312 246.289 858.871 C 246.543 858.431 246.909 858.064 247.350 857.810 C 247.791 857.555 248.291 857.421 248.800 857.421 H 392.800 C 393.309 857.421 393.809 857.555 394.250 857.810 C 394.691 858.064 395.057 858.431 395.311 858.871 C 395.566 859.312 395.700 859.812 395.700 860.321 V 1004.321 C 395.700 1004.830 395.566 1005.331 395.311 1005.771 C 395.057 1006.212 394.691 1006.578 394.250 1006.833 C 393.809 1007.087 393.309 1007.221 392.800 1007.221 H 320.800 Z" stroke="rgb(0,0,255)" stroke-width="0.20" />
  <path d="M 290.800 1035.221 H 275.900 C 275.800 1035.221 275.900 1035.321 275.900 1035.221 V 1032.421 C 275.900 1032.321 275.800 1032.421 275.900 1032.421 H 305.700 C 305.800 1032.421 305.700 1032.321 305.700 1032.421 V 1035.221 C 305.700 1035.321 305.800 1035.221 305.700 1035.221 H 290.800 Z" stroke="rgb(0,0,255)" stroke-width="0.20" />
  <path d="M 350.800 1035.221 H 335.900 C 335.800 1035.221 335.900 1035.321 335.900 1035.221 V 1032.421 C 335.900 1032.321 335.800 1032.421 335.900 1032.421 H 365.700 C 365.800 1032.421 365.700 1032.321 365.700 1032.421 V 1035.221 C 365.700 1035.321 365.800 1035.221 365.700 1035.221 H 350.800 Z" stroke="rgb(0,0,255)" stroke-width="0.20" />
  <path d="M 220.800 1091.990 H 420.800 C 420.855 1091.990 420.900 1091.945 420.900 1091.890 V 1032.321 V 977.421 C 420.900 977.321 420.800 977.421 420.900 977.421 H 423.800 C 423.855 977.421 423.900 977.377 423.900 977.321 V 947.321 C 423.900 947.266 423.855 947.221 423.800 947.221 H 420.900 C 420.800 947.221 420.900 947.321 420.900 947.221 V 917.421 C 420.900 917.321 420.800 917.421 420.900 917.421 H 423.800 C 423.855 917.421 423.900 917.377 423.900 917.321 V 887.321 C 423.900 887.266 423.855 887.221 423.800 887.221 H 420.900 C 420.800 887.221 420.900 887.321 420.900 887.221 V 832.321 V 829.321 C 420.900 829.295 420.889 829.269 420.871 829.251 L 381.548 789.928 C 381.477 789.857 381.477 789.999 381.548 789.928 L 383.599 787.877 C 383.638 787.838 383.638 787.775 383.599 787.736 L 362.385 766.523 C 362.346 766.484 362.283 766.484 362.244 766.523 L 360.193 768.573 C 360.123 768.644 360.264 768.644 360.193 768.573 L 320.871 729.251 C 320.832 729.212 320.768 729.212 320.729 729.251 L 281.407 768.573 C 281.336 768.644 281.477 768.644 281.407 768.573 L 279.356 766.523 C 279.317 766.484 279.254 766.484 279.215 766.523 L 258.001 787.736 C 257.962 787.775 257.962 787.838 258.001 787.877 L 260.052 789.928 C 260.123 789.999 260.123 789.857 260.052 789.928 L 220.729 829.251 C 220.711 829.269 220.700 829.295 220.700 829.321 V 832.321 V 887.221 C 220.700 887.321 220.800 887.221 220.700 887.221 H 217.800 C 217.745 887.221 217.700 887.266 217.700 887.321 V 917.321 C 217.700 917.377 217.745 917.421 217.800 917.421 H 220.700 C 220.800 917.421 220.700 917.321 220.700 917.421 V 947.221 C 220.700 947.321 220.800 947.221 220.700 947.221 H 217.800 C 217.745 947.221 217.700 947.266 217.700 947.321 V 977.321 C 217.700 977.377 217.745 977.421 217.800 977.421 H 220.700 C 220.800 977.421 220.700 977.321 220.700 977.421 V 1032.321 V 1091.890 C 220.700 1091.945 220.745 1091.990 220.800 1091.990 Z" stroke="rgb(0,0,0)" stroke-width="0.20" />
</g>
<g id="p-3" style="fill:none;stroke-linecap:round;stroke-linejoin:round;">
  <path d="M 113.100 696.521 H 41.100 C 40.591 696.521 40.091 696.387 39.650 696.133 C 39.209 695.878 38.843 695.512 38.589 695.071 C 38.334 694.631 38.200 694.130 38.200 693.621 V 549.621 C 38.200 549.112 38.334 548.612 38.589 548.171 C 38.843 547.731 39.209 547.364 39.650 547.110 C 40.091 546.855 40.591 546.721 41.100 546.721 H 185.100 C 185.609 546.721 186.109 546.855 186.550 547.110 C 186.991 547.364 187.357 547.731 187.611 548.171 C 187.866 548.612 188.000 549.112 188.000 549.621 V 693.621 C 188.000 694.130 187.866 694.631 187.611 695.071 C 187.357 695.512 186.991 695.878 186.550 696.133 C 186.109 696.387 185.609 696.521 185.100 696.521 H 113.100 Z" stroke="rgb(0,0,255)" stroke-width="0.20" />
  <path d="M 83.100 724.521 H 68.200 C 68.100 724.521 68.200 724.621 68.200 724.521 V 721.721 C 68.200 721.621 68.100 721.721 68.200 721.721 H 98.000 C 98.100 721.721 98.000 721.621 98.000 721.721 V 724.521 C 98.000 724.621 98.100 724.521 98.000 724.521 H 83.100 Z" stroke="rgb(0,0,255)" stroke-width="0.20" />
  <path d="M 143.100 724.521 H 128.200 C 128.100 724.521 128.200 724.621 128.200 724.521 V 721.721 C 128.200 721.621 128.100 721.721 128.200 721.721 H 158.000 C 158.100 721.721 158.000 721.621 158.000 721.721 V 724.521 C 158.000 724.621 158.100 724.521 158.000 724.521 H 143.100 Z" stroke="rgb(0,0,255)" stroke-width="0.20" />
  <path d="M 13.100 781.290 H 213.100 H 216.100 C 216.155 781.290 216.200 781.245 216.200 781.190 V 721.621 V 666.621 C 216.200 666.566 216.155 666.521 216.100 666.521 H 213.200 C 213.100 666.521 213.200 666.621 213.200 666.521 V 636.721 C 213.200 636.621 213.100 636.721 213.200 636.721 H 216.100 C 216.155 636.721 216.200 636.677 216.200 636.621 V 606.621 C 216.200 606.566 216.155 606.521 216.100 606.521 H 213.200 C 213.100 606.521 213.200 606.621 213.200 606.521 V 576.721 C 213.200 576.621 213.100 576.721 213.200 576.721 H 216.100 C 216.155 576.721 216.200 576.677 216.200 576.621 V 521.621 C 216.200 521.566 216.155 521.521 216.100 521.521 H 213.100 H 13.100 H 10.100 C 10.045 521.521 10.000 521.566 10.000 521.621 V 576.621 C 10.000 576.677 10.045 576.721 10.100 576.721 H 13.000 C 13.100 576.721 13.000 576.621 13.000 576.721 V 606.521 C 13.000 606.621 13.100 606.521 13.000 606.521 H 10.100 C 10.045 606.521 10.000 606.566 10.000 606.621 V 636.621 C 10.000 636.677 10.045 636.721 10.100 636.721 H 13.000 C 13.100 636.721 13.000 636.621 13.000 636.721 V 666.521 C 13.000 666.621 13.100 666.521 13.000 666.521 H 10.100 C 10.045 666.521 10.000 666.566 10.000 666.621 V 721.621 V 781.190 C 10.000 781.245 10.045 781.290 10.100 781.290 H 13.100 Z" stroke="rgb(0,0,0)" stroke-width="0.20" />
</g>
<g id="p-4" style="fill:none;stroke-linecap:round;stroke-linejoin:round;">
  <path d="M 320.800 696.521 H 248.800 C 248.291 696.521 247.791 696.387 247.350 696.133 C 246.909 695.878 246.543 695.512 246.289 695.071 C 246.034 694.631 245.900 694.130 245.900 693.621 V 549.621 C 245.900 549.112 246.034 548.612 246.289 548.171 C 246.543 547.731 246.909 547.364 247.350 547.110 C 247.791 546.855 248.291 546.721 248.800 546.721 H 392.800 C 393.309 546.721 393.809 546.855 394.250 547.110 C 394.691 547.364 395.057 547.731 395.311 548.171 C 395.566 548.612 395.700 549.112 395.700 549.621 V 693.621 C 395.700 694.130 395.566 694.631 395.311 695.071 C 395.057 695.512 394.691 695.878 394.250 696.133 C 393.809 696.387 393.309 696.521 392.800 696.521 H 320.800 Z" stroke="rgb(0,0,255)" stroke-width="0.20" />
  <path d="M 290.800 724.521 H 275.900 C 275.800 724.521 275.900 724.621 275.900 724.521 V 721.721 C 275.900 721.621 275.800 721.721 275.900 721.721 H 305.700 C 305.800 721.721 305.700 721.621 305.700 721.721 V 724.521 C 305.700 724.621 305.800 724.521 305.700 724.521 H 290.800 Z" stroke="rgb(0,0,255)" stroke-width="0.20" />
  <path d="M 350.800 724.521 H 335.900 C 335.800 724.521 335.900 724.621 335.900 724.521 V 721.721 C 335.900 721.621 335.800 721.721 335.900 721.721 H 365.700 C 365.800 721.721 365.700 721.621 365.700 721.721 V 724.521 C 365.700 724.621 365.800 724.521 365.700 724.521 H 350.800 Z" stroke="rgb(0,0,255)" stroke-width="0.20" />
  <path d="M 220.800 781.290 H 420.800 H 423.800 C 423.855 781.290 423.900 781.245 423.900 781.190 V 721.621 V 666.621 C 423.900 666.566 423.855 666.521 423.800 666.521 H 420.900 C 420.800 666.521 420.900 666.621 420.900 666.521 V 636.721 C 420.900 636.621 420.800 636.721 420.900 636.721 H 423.800 C 423.855 636.721 423.900 636.677 423.900 636.621 V 606.621 C 423.900 606.566 423.855 606.521 423.800 606.521 H 420.900 C 420.800 606.521 420.900 606.621 420.900 606.521 V 576.721 C 420.900 576.621 420.800 576.721 420.900 576.721 H 423.800 C 423.855 576.721 423.900 576.677 423.900 576.621 V 521.621 C 423.900 521.566 423.855 521.521 423.800 521.521 H 420.800 H 220.800 H 217.800 C 217.745 521.521 217.700 521.566 217.700 521.621 V 576.621 C 217.700 576.677 217.745 576.721 217.800 576.721 H 220.700 C 220.800 576.721 220.700 576.621 220.700 576.721 V 606.521 C 220.700 606.621 220.800 606.521 220.700 606.521 H 217.800 C 217.745 606.521 217.700 606.566 217.700 606.621 V 636.621 C 217.700 636.677 217.745 636.721 217.800 636.721 H 220.700 C 220.800 636.721 220.700 636.621 220.700 636.721 V 666.521 C 220.700 666.621 220.800 666.521 220.700 666.521 H 217.800 C 217.745 666.521 217.700 666.566 217.700 666.621 V 721.621 V 781.190 C 217.700 781.245 217.745 781.290 217.800 781.290 H 220.800 Z" stroke="rgb(0,0,0)" stroke-width="0.20" />
</g>
<g id="p-5" style="fill:none;stroke-linecap:round;stroke-linejoin:round;">
  <path d="M 13.100 570.590 H 68.000 C 68.100 570.590 68.000 570.490 68.000 570.590 V 573.490 C 68.000 573.545 68.045 573.590 68.100 573.590 H 98.100 C 98.155 573.590 98.200 573.545 98.200 573.490 V 570.590 C 98.200 570.490 98.100 570.590 98.200 570.590 H 128.000 C 128.100 570.590 128.000 570.490 128.000 570.590 V 573.490 C 128.000 573.545 128.045 573.590 128.100 573.590 H 158.100 C 158.155 573.590 158.200 573.545 158.200 573.490 V 570.590 C 158.200 570.490 158.100 570.590 158.200 570.590 H 213.100 C 213.155 570.590 213.200 570.545 213.200 570.490 V 515.590 C 213.200 515.490 213.100 515.590 213.200 515.590 H 216.100 C 216.155 515.590 216.200 515.545 216.200 515.490 V 485.490 C 216.200 485.435 216.155 485.390 216.100 485.390 H 213.200 C 213.100 485.390 213.200 485.490 213.200 485.390 V 455.590 C 213.200 455.490 213.100 455.590 213.200 455.590 H 216.100 C 216.155 455.590 216.200 455.545 216.200 455.490 V 425.490 C 216.200 425.435 216.155 425.390 216.100 425.390 H 213.200 C 213.100 425.390 213.200 425.490 213.200 425.390 V 370.490 C 213.200 370.435 213.155 370.390 213.100 370.390 H 158.200 C 158.100 370.390 158.200 370.490 158.200 370.390 V 367.490 C 158.200 367.435 158.155 367.390 158.100 367.390 H 128.100 C 128.045 367.390 128.000 367.435 128.000 367.490 V 370.390 C 128.000 370.490 128.100 370.390 128.000 370.390 H 98.200 C 98.100 370.390 98.200 370.490 98.200 370.390 V 367.490 C 98.200 367.435 98.155 367.390 98.100 367.390 H 68.100 C 68.045 367.390 68.000 367.435 68.000 367.490 V 370.390 C 68.000 370.490 68.100 370.390 68.000 370.390 H 13.100 C 13.045 370.390 13.000 370.435 13.000 370.490 V 425.390 C 13.000 425.490 13.100 425.390 13.000 425.390 H 10.100 C 10.045 425.390 10.000 425.435 10.000 425.490 V 455.490 C 10.000 455.545 10.045 455.590 10.100 455.590 H 13.000 C 13.100 455.590 13.000 455.490 13.000 455.590 V 485.390 C 13.000 485.490 13.100 485.390 13.000 485.390 H 10.100 C 10.045 485.390 10.000 485.435 10.000 485.490 V 515.490 C 10.000 515.545 10.045 515.590 10.100 515.590 H 13.000 C 13.100 515.590 13.000 515.490 13.000 515.590 V 570.490 C 13.000 570.545 13.045 570.590 13.100 570.590 Z" stroke="rgb(0,0,0)" stroke-width="0.20" />
</g>
<g id="p-6" style="fill:none;stroke-linecap:round;stroke-linejoin:round;">
  <path d="M 274.369 573.590 H 480.369 C 490.316 573.590 500.088 570.971 508.703 565.998 C 517.318 561.024 524.471 553.870 529.445 545.256 C 534.419 536.641 537.037 526.869 537.037 516.921 V 369.500 C 537.037 369.445 536.992 369.400 536.937 369.400 H 482.469 C 482.369 369.400 482.469 369.500 482.469 369.400 V 366.500 C 482.469 366.445 482.424 366.400 482.369 366.400 H 452.369 C 452.313 366.400 452.269 366.445 452.269 366.500 V 369.400 C 452.269 369.500 452.369 369.400 452.269 369.400 H 422.469 C 422.369 369.400 422.469 369.500 422.469 369.400 V 366.500 C 422.469 366.445 422.424 366.400 422.369 366.400 H 392.369 C 392.313 366.400 392.269 366.445 392.269 366.500 V 369.400 C 392.269 369.500 392.369 369.400 392.269 369.400 H 362.469 C 362.369 369.400 362.469 369.500 362.469 369.400 V 366.500 C 362.469 366.445 362.424 366.400 362.369 366.400 H 332.369 C 332.313 366.400 332.269 366.445 332.269 366.500 V 369.400 C 332.269 369.500 332.369 369.400 332.269 369.400 H 302.469 C 302.369 369.400 302.469 369.500 302.469 369.400 V 366.500 C 302.469 366.445 302.424 366.400 302.369 366.400 H 272.369 C 272.313 366.400 272.269 366.445 272.269 366.500 V 369.400 C 272.269 369.500 272.369 369.400 272.269 369.400 H 217.800 C 217.745 369.400 217.700 369.445 217.700 369.500 V 516.921 C 217.700 526.869 220.318 536.641 225.292 545.256 C 230.266 553.870 237.420 561.024 246.034 565.998 C 254.649 570.971 264.421 573.590 274.369 573.590 Z" stroke="rgb(0,0,0)" stroke-width="0.20" />
  <path d="M 477.469 440.111 V 425.211 C 477.469 425.111 477.369 425.211 477.469 425.211 H 480.269 C 480.369 425.211 480.269 425.111 480.269 425.211 V 455.011 C 480.269 455.111 480.369 455.011 480.269 455.011 H 477.469 C 477.369 455.011 477.469 455.111 477.469 455.011 V 440.111 Z" stroke="rgb(0,0,255)" stroke-width="0.20" />
  <path d="M 274.469 440.111 V 425.211 C 274.469 425.111 274.369 425.211 274.469 425.211 H 277.269 C 277.369 425.211 277.269 425.111 277.269 425.211 V 455.011 C 277.269 455.111 277.369 455.011 277.269 455.011 H 274.469 C 274.369 455.011 274.469 455.111 274.469 455.011 V 440.111 Z" stroke="rgb(0,0,255)" stroke-width="0.20" />
</g>
<g id="p-7" style="fill:none;stroke-linecap:round;stroke-linejoin:round;">
  <path d="M 66.669 365.890 H 272.669 C 282.616 365.890 292.388 363.271 301.003 358.298 C 309.618 353.324 316.771 346.170 321.745 337.556 C 326.719 328.941 329.337 319.169 329.337 309.221 V 161.800 V 158.800 C 329.337 158.745 329.292 158.700 329.237 158.700 H 274.669 C 274.613 158.700 274.569 158.745 274.569 158.800 V 161.700 C 274.569 161.800 274.669 161.700 274.569 161.700 H 244.769 C 244.669 161.700 244.769 161.800 244.769 161.700 V 158.800 C 244.769 158.745 244.724 158.700 244.669 158.700 H 214.669 C 214.613 158.700 214.569 158.745 214.569 158.800 V 161.700 C 214.569 161.800 214.669 161.700 214.569 161.700 H 184.769 C 184.669 161.700 184.769 161.800 184.769 161.700 V 158.800 C 184.769 158.745 184.724 158.700 184.669 158.700 H 154.669 C 154.613 158.700 154.569 158.745 154.569 158.800 V 161.700 C 154.569 161.800 154.669 161.700 154.569 161.700 H 124.769 C 124.669 161.700 124.769 161.800 124.769 161.700 V 158.800 C 124.769 158.745 124.724 158.700 124.669 158.700 H 94.669 C 94.613 158.700 94.569 158.745 94.569 158.800 V 161.700 C 94.569 161.800 94.669 161.700 94.569 161.700 H 64.769 C 64.669 161.700 64.769 161.800 64.769 161.700 V 158.800 C 64.769 158.745 64.724 158.700 64.669 158.700 H 10.100 C 10.045 158.700 10.000 158.745 10.000 158.800 V 161.800 V 309.221 C 10.000 319.169 12.618 328.941 17.592 337.556 C 22.566 346.170 29.720 353.324 38.334 358.298 C 46.949 363.271 56.721 365.890 66.669 365.890 Z" stroke="rgb(0,0,0)" stroke-width="0.20" />
  <path d="M 269.769 232.411 V 217.511 C 269.769 217.411 269.669 217.511 269.769 217.511 H 272.569 C 272.669 217.511 272.569 217.411 272.569 217.511 V 247.311 C 272.569 247.411 272.669 247.311 272.569 247.311 H 269.769 C 269.669 247.311 269.769 247.411 269.769 247.311 V 232.411 Z" stroke="rgb(0,0,255)" stroke-width="0.20" />
  <path d="M 66.769 232.411 V 217.511 C 66.769 217.411 66.669 217.511 66.769 217.511 H 69.569 C 69.669 217.511 69.569 217.411 69.569 217.511 V 247.311 C 69.569 247.411 69.669 247.311 69.569 247.311 H 66.769 C 66.669 247.311 66.769 247.411 66.769 247.311 V 232.411 Z" stroke="rgb(0,0,255)" stroke-width="0.20" />
</g>
<g id="p-8" style="fill:none;stroke-linecap:round;stroke-linejoin:round;">
  <path d="M 330.937 365.890 H 518.437 C 518.492 365.890 518.537 365.845 518.537 365.790 V 290.790 C 518.537 290.735 518.492 290.690 518.437 290.690 H 458.937 H 456.037 C 455.937 290.690 456.037 290.790 456.037 290.690 V 287.790 C 456.037 287.735 455.992 287.690 455.937 287.690 H 393.437 C 393.382 287.690 393.337 287.735 393.337 287.790 V 290.690 C 393.337 290.790 393.437 290.690 393.337 290.690 H 390.437 H 333.937 H 331.037 C 330.937 290.690 331.037 290.790 331.037 290.690 V 287.790 V 215.790 C 331.037 215.772 331.032 215.755 331.024 215.740 C 331.015 215.725 331.002 215.712 330.987 215.703 C 330.972 215.695 330.955 215.690 330.937 215.690 C 330.920 215.690 330.902 215.695 330.887 215.703 C 330.872 215.712 330.859 215.725 330.850 215.740 C 330.842 215.755 330.837 215.772 330.837 215.790 V 365.790 C 330.837 365.845 330.882 365.890 330.937 365.890 Z" stroke="rgb(0,0,0)" stroke-width="0.20" />
  <text dominant-baseline="hanging" font-size="4px" style="font-family: sans-serif ; font-weight: normal; font-style: normal; fill: rgb(255,0,0)" text-anchor="middle" transform="matrix( 1.000 0.000 0.000 1.000 424.687 288.890 )">integrated perch front tab</text>
</g>
<g id="p-9" style="fill:none;stroke-linecap:round;stroke-linejoin:round;">
  <path d="M 10.100 160.200 H 197.600 C 197.655 160.200 197.700 160.155 197.700 160.100 V 85.100 C 197.700 85.045 197.655 85.000 197.600 85.000 H 138.100 H 135.200 C 135.100 85.000 135.200 85.100 135.200 85.000 V 82.100 C 135.200 82.045 135.155 82.000 135.100 82.000 H 72.600 C 72.545 82.000 72.500 82.045 72.500 82.100 V 85.000 C 72.500 85.100 72.600 85.000 72.500 85.000 H 69.600 H 13.100 H 10.200 C 10.100 85.000 10.200 85.100 10.200 85.000 V 82.100 V 10.100 C 10.200 10.082 10.195 10.065 10.187 10.050 C 10.178 10.035 10.165 10.022 10.150 10.013 C 10.135 10.005 10.118 10.000 10.100 10.000 C 10.082 10.000 10.065 10.005 10.050 10.013 C 10.035 10.022 10.022 10.035 10.013 10.050 C 10.005 10.065 10.000 10.082 10.000 10.100 V 160.100 C 10.000 160.155 10.045 160.200 10.100 160.200 Z" stroke="rgb(0,0,0)" stroke-width="0.20" />
  <text dominant-baseline="hanging" font-size="4px" style="font-family: sans-serif ; font-weight: normal; font-style: normal; fill: rgb(255,0,0)" text-anchor="middle" transform="matrix( 1.000 0.000 0.000 1.000 103.850 83.200 )">integrated perch back tab</text>
</g>
<g id="p-10" style="fill:none;stroke-linecap:round;stroke-linejoin:round;">
  <path d="M 199.300 160.200 H 386.800 C 386.855 160.200 386.900 160.155 386.900 160.100 V 85.100 C 386.900 85.045 386.855 85.000 386.800 85.000 H 327.300 H 324.400 C 324.300 85.000 324.400 85.100 324.400 85.000 V 82.100 C 324.400 82.045 324.355 82.000 324.300 82.000 H 261.800 C 261.745 82.000 261.700 82.045 261.700 82.100 V 85.000 C 261.700 85.100 261.800 85.000 261.700 85.000 H 258.800 H 202.300 H 199.400 C 199.300 85.000 199.400 85.100 199.400 85.000 V 82.100 V 10.100 C 199.400 10.082 199.395 10.065 199.387 10.050 C 199.378 10.035 199.365 10.022 199.350 10.013 C 199.335 10.005 199.318 10.000 199.300 10.000 C 199.282 10.000 199.265 10.005 199.250 10.013 C 199.235 10.022 199.222 10.035 199.213 10.050 C 199.205 10.065 199.200 10.082 199.200 10.100 V 160.100 C 199.200 160.155 199.245 160.200 199.300 160.200 Z" stroke="rgb(0,0,0)" stroke-width="0.20" />
  <text dominant-baseline="hanging" font-size="4px" style="font-family: sans-serif ; font-weight: normal; font-style: normal; fill: rgb(255,0,0)" text-anchor="middle" transform="matrix( 1.000 0.000 0.000 1.000 293.050 83.200 )">integrated perch left tab</text>
</g>
<g id="p-11" style="fill:none;stroke-linecap:round;stroke-linejoin:round;">
  <path d="M 388.500 160.200 H 576.000 C 576.055 160.200 576.100 160.155 576.100 160.100 V 85.100 C 576.100 85.045 576.055 85.000 576.000 85.000 H 516.500 H 513.600 C 513.500 85.000 513.600 85.100 513.600 85.000 V 82.100 C 513.600 82.045 513.555 82.000 513.500 82.000 H 451.000 C 450.945 82.000 450.900 82.045 450.900 82.100 V 85.000 C 450.900 85.100 451.000 85.000 450.900 85.000 H 448.000 H 391.500 H 388.600 C 388.500 85.000 388.600 85.100 388.600 85.000 V 82.100 V 10.100 C 388.600 10.082 388.595 10.065 388.587 10.050 C 388.578 10.035 388.565 10.022 388.550 10.013 C 388.535 10.005 388.518 10.000 388.500 10.000 C 388.482 10.000 388.465 10.005 388.450 10.013 C 388.435 10.022 388.422 10.035 388.413 10.050 C 388.405 10.065 388.400 10.082 388.400 10.100 V 160.100 C 388.400 160.155 388.445 160.200 388.500 160.200 Z" stroke="rgb(0,0,0)" stroke-width="0.20" />
  <text dominant-baseline="hanging" font-size="4px" style="font-family: sans-serif ; font-weight: normal; font-style: normal; fill: rgb(255,0,0)" text-anchor="middle" transform="matrix( 1.000 0.000 0.000 1.000 482.250 83.200 )">integrated perch right tab</text>
</g>
</svg>