<?xml version='1.0' encoding='utf-8'?>
<svg height="879.47mm" viewBox="0.0 0.0 594.46 879.47" width="594.46mm" xmlns="http://www.w3.org/2000/svg" xmlns:cc="http://creativecommons.org/ns#" xmlns:dc="http://purl.org/dc/elements/1.1/" xmlns:inkscape="http://www.inkscape.org/namespaces/inkscape" xmlns:rdf="http://www.w3.org/1999/02/22-rdf-syntax-ns#" xmlns:svg="http://www.w3.org/2000/svg" xmlns:xlink="http://www.w3.org/1999/xlink">
<!--
BirdHouse - Simple Bird House

Created with Boxes.py (https://boxes.hackerspace-bamberg.de/)
Command line (remove spaces between dashes): boxes BirdHouse
-->
<title>BirdHouse</title>
<metadata>
<rdf:RDF><cc:Work>
<dc:title>Misc - BirdHouse</dc:title>
<dc:source>boxes BirdHouse</dc:source>
<dc:description>Simple Bird House

Created with Boxes.py (https://boxes.hackerspace-bamberg.de/)
Command line: boxes BirdHouse
Command line short: boxes BirdHouse
</dc:description>
</cc:Work></rdf:RDF></metadata>
<g id="p-0" style="fill:none;stroke-linecap:round;stroke-linejoin:round;">
  <path d="M 10.200 869.474 H 110.200 V 859.474 H 10.200 V 869.474 Z" stroke="rgb(0,0,0)" stroke-width="0.20" />
  <text dominant-baseline="hanging" font-size="6px" style="font-family: sans-serif ; font-weight: normal; font-style: normal; fill: rgb(255,0,0)" text-anchor="middle" transform="matrix( 1.000 0.000 0.000 1.000 60.200 861.474 )">100.0mm, burn:0.10mm</text>
</g>
<g id="p-1" style="fill:none;stroke-linecap:round;stroke-linejoin:round;">
  <path d="M 291.000 754.774 V 826.774 C 291.000 827.283 290.866 827.783 290.611 828.224 C 290.357 828.665 289.991 829.031 289.550 829.286 C 289.109 829.540 288.609 829.674 288.100 829.674 H 144.100 C 143.591 829.674 143.091 829.540 142.650 829.286 C 142.209 829.031 141.843 828.665 141.589 828.224 C 141.334 827.783 141.200 827.283 141.200 826.774 V 682.774 C 141.200 682.265 141.334 681.765 141.589 681.324 C 141.843 680.883 142.209 680.517 142.650 680.263 C 143.091 680.008 143.591 679.874 144.100 679.874 H 288.100 C 288.609 679.874 289.109 680.008 289.550 680.263 C 289.991 680.517 290.357 680.883 290.611 681.324 C 290.866 681.765 291.000 682.265 291.000 682.774 V 754.774 Z" stroke="rgb(0,0,255)" stroke-width="0.20" />
  <path d="M 319.000 784.774 V 799.674 C 319.000 799.774 319.100 799.674 319.000 799.674 H 316.200 C 316.100 799.674 316.200 799.774 316.200 799.674 V 769.874 C 316.200 769.774 316.100 769.874 316.200 769.874 H 319.000 C 319.100 769.874 319.000 769.774 319.000 769.874 V 784.774 Z" stroke="rgb(0,0,255)" stroke-width="0.20" />
  <path d="M 319.000 724.774 V 739.674 C 319.000 739.774 319.100 739.674 319.000 739.674 H 316.200 C 316.100 739.674 316.200 739.774 316.200 739.674 V 709.874 C 316.200 709.774 316.100 709.874 316.200 709.874 H 319.000 C 319.100 709.874 319.000 709.774 319.000 709.874 V 724.774 Z" stroke="rgb(0,0,255)" stroke-width="0.20" />
  <path d="M 375.769 854.774 V 654.774 C 375.769 654.719 375.724 654.674 375.669 654.674 H 316.100 H 261.200 C 261.100 654.674 261.200 654.774 261.200 654.674 V 651.774 C 261.200 651.719 261.155 651.674 261.100 651.674 H 231.100 C 231.045 651.674 231.000 651.719 231.000 651.774 V 654.674 C 231.000 654.774 231.100 654.674 231.000 654.674 H 201.200 C 201.100 654.674 201.200 654.774 201.200 654.674 V 651.774 C 201.200 651.719 201.155 651.674 201.100 651.674 H 171.100 C 171.045 651.674 171.000 651.719 171.000 651.774 V 654.674 C 171.000 654.774 171.100 654.674 171.000 654.674 H 116.100 H 113.100 C 113.073 654.674 113.048 654.685 113.029 654.703 L 73.707 694.026 C 73.636 694.097 73.777 694.097 73.707 694.026 L 71.656 691.976 C 71.617 691.936 71.554 691.936 71.515 691.976 L 50.301 713.189 C 50.262 713.228 50.262 713.291 50.301 713.330 L 52.352 715.381 C 52.423 715.451 52.423 715.310 52.352 715.381 L 13.029 754.703 C 12.990 754.743 12.990 754.806 13.029 754.845 L 52.352 794.168 C 52.423 794.238 52.423 794.097 52.352 794.168 L 50.301 796.218 C 50.262 796.257 50.262 796.321 50.301 796.360 L 71.515 817.573 C 71.554 817.612 71.617 817.612 71.656 817.573 L 73.707 815.522 C 73.777 815.451 73.636 815.451 73.707 815.522 L 113.029 854.845 C 113.048 854.864 113.073 854.874 113.100 854.874 H 116.100 H 171.000 C 171.100 854.874 171.000 854.774 171.000 854.874 V 857.774 C 171.000 857.829 171.045 857.874 171.100 857.874 H 201.100 C 201.155 857.874 201.200 857.829 201.200 857.774 V 854.874 C 201.200 854.774 201.100 854.874 201.200 854.874 H 231.000 C 231.100 854.874 231.000 854.774 231.000 854.874 V 857.774 C 231.000 857.829 231.045 857.874 231.100 857.874 H 261.100 C 261.155 857.874 261.200 857.829 261.200 857.774 V 854.874 C 261.200 854.774 261.100 854.874 261.200 854.874 H 316.100 H 375.669 C 375.724 854.874 375.769 854.829 375.769 854.774 Z" stroke="rgb(0,0,0)" stroke-width="0.20" />
</g>
<g id="p-2" style="fill:none;stroke-linecap:round;stroke-linejoin:round;">
  <path d="M 291.000 547.074 V 619.074 C 291.000 619.583 290.866 620.083 290.611 620.524 C 290.357 620.965 289.991 621.331 289.550 621.586 C 289.109 621.840 288.609 621.974 288.100 621.974 H 144.100 C 143.591 621.974 143.091 621.840 142.650 621.586 C 142.209 621.331 141.843 620.965 141.589 620.524 C 141.334 620.083 141.200 619.583 141.200 619.074 V 475.074 C 141.200 474.565 141.334 474.065 141.589 473.624 C 141.843 473.183 142.209 472.817 142.650 472.563 C 143.091 472.308 143.591 472.174 144.100 472.174 H 288.100 C 288.609 472.174 289.109 472.308 289.550 472.563 C 289.991 472.817 290.357 473.183 290.611 473.624 C 290.866 474.065 291.000 474.565 291.000 475.074 V 547.074 Z" stroke="rgb(0,0,255)" stroke-width="0.20" />
  <path d="M 319.000 577.074 V 591.974 C 319.000 592.074 319.100 591.974 319.000 591.974 H 316.200 C 316.100 591.974 316.200 592.074 316.200 591.974 V 562.174 C 316.200 562.074 316.100 562.174 316.200 562.174 H 319.000 C 319.100 562.174 319.000 562.074 319.000 562.174 V 577.074 Z" stroke="rgb(0,0,255)" stroke-width="0.20" />
  <path d="M 319.000 517.074 V 531.974 C 319.000 532.074 319.100 531.974 319.000 531.974 H 316.200 C 316.100 531.974 316.200 532.074 316.200 531.974 V 502.174 C 316.200 502.074 316.100 502.174 316.200 502.174 H 319.000 C 319.100 502.174 319.000 502.074 319.000 502.174 V 517.074 Z" stroke="rgb(0,0,255)" stroke-width="0.20" />
  <path d="M 375.769 647.074 V 447.074 C 375.769 447.019 375.724 446.974 375.669 446.974 H 316.100 H 261.200 C 261.100 446.974 261.200 447.074 261.200 446.974 V 444.074 C 261.200 444.019 261.155 443.974 261.100 443.974 H 231.100 C 231.045 443.974 231.000 444.019 231.000 444.074 V 446.974 C 231.000 447.074 231.100 446.974 231.000 446.974 H 201.200 C 201.100 446.974 201.200 447.074 201.200 446.974 V 444.074 C 201.200 444.019 201.155 443.974 201.100 443.974 H 171.100 C 171.045 443.974 171.000 444.019 171.000 444.074 V 446.974 C 171.000 447.074 171.100 446.974 171.000 446.974 H 116.100 H 113.100 C 113.073 446.974 113.048 446.985 113.029 447.003 L 73.707 486.326 C 73.636 486.397 73.777 486.397 73.707 486.326 L 71.656 484.276 C 71.617 484.236 71.554 484.236 71.515 484.276 L 50.301 505.489 C 50.262 505.528 50.262 505.591 50.301 505.630 L 52.352 507.681 C 52.423 507.751 52.423 507.610 52.352 507.681 L 13.029 547.003 C 12.990 547.043 12.990 547.106 13.029 547.145 L 52.352 586.468 C 52.423 586.538 52.423 586.397 52.352 586.468 L 50.301 588.518 C 50.262 588.557 50.262 588.621 50.301 588.660 L 71.515 609.873 C 71.554 609.912 71.617 609.912 71.656 609.873 L 73.707 607.822 C 73.777 607.751 73.636 607.751 73.707 607.822 L 113.029 647.145 C 113.048 647.164 113.073 647.174 113.100 647.174 H 116.100 H 171.000 C 171.100 647.174 171.000 647.074 171.000 647.174 V 650.074 C 171.000 650.129 171.045 650.174 171.100 650.174 H 201.100 C 201.155 650.174 201.200 650.129 201.200 650.074 V 647.174 C 201.200 647.074 201.100 647.174 201.200 647.174 H 231.000 C 231.100 647.174 231.000 647.074 231.000 647.174 V 650.074 C 231.000 650.129 231.045 650.174 231.100 650.174 H 261.100 C 261.155 650.174 261.200 650.129 261.200 650.074 V 647.174 C 261.200 647.074 261.100 647.174 261.200 647.174 H 316.100 H 375.669 C 375.724 647.174 375.769 647.129 375.769 647.074 Z" stroke="rgb(0,0,0)" stroke-width="0.20" />
</g>
<g id="p-3" style="fill:none;stroke-linecap:round;stroke-linejoin:round;">
  <path d="M 185.000 113.100 V 185.100 C 185.000 185.609 184.866 186.109 184.611 186.550 C 184.357 186.991 183.991 187.357 183.550 187.611 C 183.109 187.866 182.609 188.000 182.100 188.000 H 38.100 C 37.591 188.000 37.091 187.866 36.650 187.611 C 36.209 187.357 35.843 186.991 35.589 186.550 C 35.334 186.109 35.200 185.609 35.200 185.100 V 41.100 C 35.200 40.591 35.334 40.091 35.589 39.650 C 35.843 39.209 36.209 38.843 36.650 38.589 C 37.091 38.334 37.591 38.200 38.100 38.200 H 182.100 C 182.609 38.200 183.109 38.334 183.550 38.589 C 183.991 38.843 184.357 39.209 184.611 39.650 C 184.866 40.091 185.000 40.591 185.000 41.100 V 113.100 Z" stroke="rgb(0,0,255)" stroke-width="0.20" />
  <path d="M 213.000 143.100 V 158.000 C 213.000 158.100 213.100 158.000 213.000 158.000 H 210.200 C 210.100 158.000 210.200 158.100 210.200 158.000 V 128.200 C 210.200 128.100 210.100 128.200 210.200 128.200 H 213.000 C 213.100 128.200 213.000 128.100 213.000 128.200 V 143.100 Z" stroke="rgb(0,0,255)" stroke-width="0.20" />
  <path d="M 213.000 83.100 V 98.000 C 213.000 98.100 213.100 98.000 213.000 98.000 H 210.200 C 210.100 98.000 210.200 98.100 210.200 98.000 V 68.200 C 210.200 68.100 210.100 68.200 210.200 68.200 H 213.000 C 213.100 68.200 213.000 68.100 213.000 68.200 V 83.100 Z" stroke="rgb(0,0,255)" stroke-width="0.20" />
  <path d="M 269.769 213.100 V 13.100 V 10.100 C 269.769 10.045 269.724 10.000 269.669 10.000 H 210.100 H 155.100 C 155.045 10.000 155.000 10.045 155.000 10.100 V 13.000 C 155.000 13.100 155.100 13.000 155.000 13.000 H 125.200 C 125.100 13.000 125.200 13.100 125.200 13.000 V 10.100 C 125.200 10.045 125.155 10.000 125.100 10.000 H 95.100 C 95.045 10.000 95.000 10.045 95.000 10.100 V 13.000 C 95.000 13.100 95.100 13.000 95.000 13.000 H 65.200 C 65.100 13.000 65.200 13.100 65.200 13.000 V 10.100 C 65.200 10.045 65.155 10.000 65.100 10.000 H 10.100 C 10.045 10.000 10.000 10.045 10.000 10.100 V 13.100 V 213.100 V 216.100 C 10.000 216.155 10.045 216.200 10.100 216.200 H 65.100 C 65.155 216.200 65.200 216.155 65.200 216.100 V 213.200 C 65.200 213.100 65.100 213.200 65.200 213.200 H 95.000 C 95.100 213.200 95.000 213.100 95.000 213.200 V 216.100 C 95.000 216.155 95.045 216.200 95.100 216.200 H 125.100 C 125.155 216.200 125.200 216.155 125.200 216.100 V 213.200 C 125.200 213.100 125.100 213.200 125.200 213.200 H 155.000 C 155.100 213.200 155.000 213.100 155.000 213.200 V 216.100 C 155.000 216.155 155.045 216.200 155.100 216.200 H 210.100 H 269.669 C 269.724 216.200 269.769 216.155 269.769 216.100 V 213.100 Z" stroke="rgb(0,0,0)" stroke-width="0.20" />
</g>
<g id="p-4" style="fill:none;stroke-linecap:round;stroke-linejoin:round;">
  <path d="M 446.269 113.100 V 185.100 C 446.269 185.609 446.135 186.109 445.880 186.550 C 445.625 186.991 445.259 187.357 444.819 187.611 C 444.378 187.866 443.878 188.000 443.369 188.000 H 299.369 C 298.859 188.000 298.359 187.866 297.919 187.611 C 297.478 187.357 297.112 186.991 296.857 186.550 C 296.603 186.109 296.469 185.609 296.469 185.100 V 41.100 C 296.469 40.591 296.603 40.091 296.857 39.650 C 297.112 39.209 297.478 38.843 297.919 38.589 C 298.359 38.334 298.859 38.200 299.369 38.200 H 443.369 C 443.878 38.200 444.378 38.334 444.819 38.589 C 445.259 38.843 445.625 39.209 445.880 39.650 C 446.135 40.091 446.269 40.591 446.269 41.100 V 113.100 Z" stroke="rgb(0,0,255)" stroke-width="0.20" />
  <path d="M 474.269 143.100 V 158.000 C 474.269 158.100 474.369 158.000 474.269 158.000 H 471.469 C 471.369 158.000 471.469 158.100 471.469 158.000 V 128.200 C 471.469 128.100 471.369 128.200 471.469 128.200 H 474.269 C 474.369 128.200 474.269 128.100 474.269 128.200 V 143.100 Z" stroke="rgb(0,0,255)" stroke-width="0.20" />
  <path d="M 474.269 83.100 V 98.000 C 474.269 98.100 474.369 98.000 474.269 98.000 H 471.469 C 471.369 98.000 471.469 98.100 471.469 98.000 V 68.200 C 471.469 68.100 471.369 68.200 471.469 68.200 H 474.269 C 474.369 68.200 474.269 68.100 474.269 68.200 V 83.100 Z" stroke="rgb(0,0,255)" stroke-width="0.20" />
  <path d="M 531.037 213.100 V 13.100 V 10.100 C 531.037 10.045 530.992 10.000 530.937 10.000 H 471.369 H 416.369 C 416.313 10.000 416.269 10.045 416.269 10.100 V 13.000 C 416.269 13.100 416.369 13.000 416.269 13.000 H 386.469 C 386.369 13.000 386.469 13.100 386.469 13.000 V 10.100 C 386.469 10.045 386.424 10.000 386.369 10.000 H 356.369 C 356.313 10.000 356.269 10.045 356.269 10.100 V 13.000 C 356.269 13.100 356.369 13.000 356.269 13.000 H 326.469 C 326.369 13.000 326.469 13.100 326.469 13.000 V 10.100 C 326.469 10.045 326.424 10.000 326.369 10.000 H 271.369 C 271.313 10.000 271.269 10.045 271.269 10.100 V 13.100 V 213.100 V 216.100 C 271.269 216.155 271.313 216.200 271.369 216.200 H 326.369 C 326.424 216.200 326.469 216.155 326.469 216.100 V 213.200 C 326.469 213.100 326.369 213.200 326.469 213.200 H 356.269 C 356.369 213.200 356.269 213.100 356.269 213.200 V 216.100 C 356.269 216.155 356.313 216.200 356.369 216.200 H 386.369 C 386.424 216.200 386.469 216.155 386.469 216.100 V 213.200 C 386.469 213.100 386.369 213.200 386.469 213.200 H 416.269 C 416.369 213.200 416.269 213.100 416.269 213.200 V 216.100 C 416.269 216.155 416.313 216.200 416.369 216.200 H 471.369 H 530.937 C 530.992 216.200 531.037 216.155 531.037 216.100 V 213.100 Z" stroke="rgb(0,0,0)" stroke-width="0.20" />
</g>
<g id="p-5" style="fill:none;stroke-linecap:round;stroke-linejoin:round;">
  <path d="M 13.200 439.374 H 68.100 C 68.200 439.374 68.100 439.274 68.100 439.374 V 442.274 C 68.100 442.329 68.145 442.374 68.200 442.374 H 98.200 C 98.255 442.374 98.300 442.329 98.300 442.274 V 439.374 C 98.300 439.274 98.200 439.374 98.300 439.374 H 128.100 C 128.200 439.374 128.100 439.274 128.100 439.374 V 442.274 C 128.100 442.329 128.145 442.374 128.200 442.374 H 158.200 C 158.255 442.374 158.300 442.329 158.300 442.274 V 439.374 C 158.300 439.274 158.200 439.374 158.300 439.374 H 213.200 C 213.255 439.374 213.300 439.329 213.300 439.274 V 384.374 C 213.300 384.274 213.200 384.374 213.300 384.374 H 216.200 C 216.255 384.374 216.300 384.329 216.300 384.274 V 354.274 C 216.300 354.219 216.255 354.174 216.200 354.174 H 213.300 C 213.200 354.174 213.300 354.274 213.300 354.174 V 324.374 C 213.300 324.274 213.200 324.374 213.300 324.374 H 216.200 C 216.255 324.374 216.300 324.329 216.300 324.274 V 294.274 C 216.300 294.219 216.255 294.174 216.200 294.174 H 213.300 C 213.200 294.174 213.300 294.274 213.300 294.174 V 239.274 C 213.300 239.219 213.255 239.174 213.200 239.174 H 158.300 C 158.200 239.174 158.300 239.274 158.300 239.174 V 236.274 C 158.300 236.219 158.255 236.174 158.200 236.174 H 128.200 C 128.145 236.174 128.100 236.219 128.100 236.274 V 239.174 C 128.100 239.274 128.200 239.174 128.100 239.174 H 98.300 C 98.200 239.174 98.300 239.274 98.300 239.174 V 236.274 C 98.300 236.219 98.255 236.174 98.200 236.174 H 68.200 C 68.145 236.174 68.100 236.219 68.100 236.274 V 239.174 C 68.100 239.274 68.200 239.174 68.100 239.174 H 13.200 C 13.145 239.174 13.100 239.219 13.100 239.274 V 294.174 C 13.100 294.274 13.200 294.174 13.100 294.174 H 10.200 C 10.145 294.174 10.100 294.219 10.100 294.274 V 324.274 C 10.100 324.329 10.145 324.374 10.200 324.374 H 13.100 C 13.200 324.374 13.100 324.274 13.100 324.374 V 354.174 C 13.100 354.274 13.200 354.174 13.100 354.174 H 10.200 C 10.145 354.174 10.100 354.219 10.100 354.274 V 384.274 C 10.100 384.329 10.145 384.374 10.200 384.374 H 13.100 C 13.200 384.374 13.100 384.274 13.100 384.374 V 439.274 C 13.100 439.329 13.145 439.374 13.200 439.374 Z" stroke="rgb(0,0,0)" stroke-width="0.20" />
</g>
<g id="p-6" style="fill:none;stroke-linecap:round;stroke-linejoin:round;">
  <path d="M 584.458 801.206 V 595.206 C 584.458 585.258 581.840 575.486 576.866 566.871 C 571.893 558.257 564.739 551.103 556.124 546.129 C 547.509 541.156 537.737 538.537 527.790 538.537 H 380.369 C 380.313 538.537 380.269 538.582 380.269 538.637 V 593.106 C 380.269 593.206 380.369 593.106 380.269 593.106 H 377.369 C 377.313 593.106 377.269 593.150 377.269 593.206 V 623.206 C 377.269 623.261 377.313 623.306 377.369 623.306 H 380.269 C 380.369 623.306 380.269 623.206 380.269 623.306 V 653.106 C 380.269 653.206 380.369 653.106 380.269 653.106 H 377.369 C 377.313 653.106 377.269 653.150 377.269 653.206 V 683.206 C 377.269 683.261 377.313 683.306 377.369 683.306 H 380.269 C 380.369 683.306 380.269 683.206 380.269 683.306 V 713.106 C 380.269 713.206 380.369 713.106 380.269 713.106 H 377.369 C 377.313 713.106 377.269 713.150 377.269 713.206 V 743.206 C 377.269 743.261 377.313 743.306 377.369 743.306 H 380.269 C 380.369 743.306 380.269 743.206 380.269 743.306 V 773.106 C 380.269 773.206 380.369 773.106 380.269 773.106 H 377.369 C 377.313 773.106 377.269 773.150 377.269 773.206 V 803.206 C 377.269 803.261 377.313 803.306 377.369 803.306 H 380.269 C 380.369 803.306 380.269 803.206 380.269 803.306 V 857.774 C 380.269 857.829 380.313 857.874 380.369 857.874 H 527.790 C 537.737 857.874 547.509 855.256 556.124 850.282 C 564.739 845.308 571.893 838.155 576.866 829.540 C 581.840 820.925 584.458 811.153 584.458 801.206 Z" stroke="rgb(0,0,0)" stroke-width="0.20" />
  <path d="M 450.979 598.106 H 436.079 C 435.979 598.106 436.079 598.206 436.079 598.106 V 595.306 C 436.079 595.206 435.979 595.306 436.079 595.306 H 465.879 C 465.979 595.306 465.879 595.206 465.879 595.306 V 598.106 C 465.879 598.206 465.979 598.106 465.879 598.106 H 450.979 Z" stroke="rgb(0,0,255)" stroke-width="0.20" />
  <path d="M 450.979 801.106 H 436.079 C 435.979 801.106 436.079 801.206 436.079 801.106 V 798.306 C 436.079 798.206 435.979 798.306 436.079 798.306 H 465.879 C 465.979 798.306 465.879 798.206 465.879 798.306 V 801.106 C 465.879 801.206 465.979 801.106 465.879 801.106 H 450.979 Z" stroke="rgb(0,0,255)" stroke-width="0.20" />
</g>
<g id="p-7" style="fill:none;stroke-linecap:round;stroke-linejoin:round;">
  <path d="M 584.458 480.369 V 274.369 C 584.458 264.421 581.840 254.649 576.866 246.034 C 571.893 237.420 564.739 230.266 556.124 225.292 C 547.509 220.318 537.737 217.700 527.790 217.700 H 380.369 H 377.369 C 377.313 217.700 377.269 217.745 377.269 217.800 V 272.369 C 377.269 272.424 377.313 272.469 377.369 272.469 H 380.269 C 380.369 272.469 380.269 272.369 380.269 272.469 V 302.269 C 380.269 302.369 380.369 302.269 380.269 302.269 H 377.369 C 377.313 302.269 377.269 302.313 377.269 302.369 V 332.369 C 377.269 332.424 377.313 332.469 377.369 332.469 H 380.269 C 380.369 332.469 380.269 332.369 380.269 332.469 V 362.269 C 380.269 362.369 380.369 362.269 380.269 362.269 H 377.369 C 377.313 362.269 377.269 362.313 377.269 362.369 V 392.369 C 377.269 392.424 377.313 392.469 377.369 392.469 H 380.269 C 380.369 392.469 380.269 392.369 380.269 392.469 V 422.269 C 380.269 422.369 380.369 422.269 380.269 422.269 H 377.369 C 377.313 422.269 377.269 422.313 377.269 422.369 V 452.369 C 377.269 452.424 377.313 452.469 377.369 452.469 H 380.269 C 380.369 452.469 380.269 452.369 380.269 452.469 V 482.269 C 380.269 482.369 380.369 482.269 380.269 482.269 H 377.369 C 377.313 482.269 377.269 482.313 377.269 482.369 V 536.937 C 377.269 536.992 377.313 537.037 377.369 537.037 H 380.369 H 527.790 C 537.737 537.037 547.509 534.419 556.124 529.445 C 564.739 524.471 571.893 517.318 576.866 508.703 C 581.840 500.088 584.458 490.316 584.458 480.369 Z" stroke="rgb(0,0,0)" stroke-width="0.20" />
  <path d="M 450.979 277.269 H 436.079 C 435.979 277.269 436.079 277.369 436.079 277.269 V 274.469 C 436.079 274.369 435.979 274.469 436.079 274.469 H 465.879 C 465.979 274.469 465.879 274.369 465.879 274.469 V 277.269 C 465.879 277.369 465.979 277.269 465.879 277.269 H 450.979 Z" stroke="rgb(0,0,255)" stroke-width="0.20" />
  <path d="M 450.979 480.269 H 436.079 C 435.979 480.269 436.079 480.369 436.079 480.269 V 477.469 C 436.079 477.369 435.979 477.469 436.079 477.469 H 465.879 C 465.979 477.469 465.879 477.369 465.879 477.469 V 480.269 C 465.879 480.369 465.979 480.269 465.879 480.269 H 450.979 Z" stroke="rgb(0,0,255)" stroke-width="0.20" />
</g>
</svg>